<svg width="120" height="70" viewBox="0 0 120 70" fill="none" xmlns="http://www.w3.org/2000/svg">
<mask id="mask0_53_760" style="mask-type:alpha" maskUnits="userSpaceOnUse" x="0" y="0" width="120" height="70">
<g clip-path="url(#clip0_53_760)">
<path d="M120 46.6019C120 59.4707 109.568 69.9029 96.699 69.9029C83.8302 69.9029 73.398 59.4707 73.398 46.6019C73.398 33.7332 83.8302 23.301 96.699 23.301C109.568 23.301 120 33.7332 120 46.6019ZM78.0582 46.6019C78.0582 56.897 86.4039 65.2427 96.699 65.2427C106.994 65.2427 115.34 56.897 115.34 46.6019C115.34 36.3069 106.994 27.9612 96.699 27.9612C86.4039 27.9612 78.0582 36.3069 78.0582 46.6019Z" fill="white"/>
<path d="M46.6019 46.6019C46.6019 59.4707 36.1697 69.9029 23.3009 69.9029C10.4321 69.9029 -6.10352e-05 59.4707 -6.10352e-05 46.6019C-6.10352e-05 33.7332 10.4321 23.301 23.3009 23.301C36.1697 23.301 46.6019 33.7332 46.6019 46.6019ZM4.66013 46.6019C4.66013 56.897 13.0058 65.2427 23.3009 65.2427C33.596 65.2427 41.9417 56.897 41.9417 46.6019C41.9417 36.3069 33.596 27.9612 23.3009 27.9612C13.0058 27.9612 4.66013 36.3069 4.66013 46.6019Z" fill="white"/>
<path fill-rule="evenodd" clip-rule="evenodd" d="M23.1844 64.3107C32.9646 64.3107 40.8931 56.3822 40.8931 46.6019C40.8931 36.8217 32.9646 28.8932 23.1844 28.8932C13.4042 28.8932 5.47565 36.8217 5.47565 46.6019C5.47565 56.3822 13.4042 64.3107 23.1844 64.3107ZM21.6732 34.7629L28.7386 34.7972L24.9593 42.111H29.348L18.5464 58.4324L22.7046 46.6602H17.892L21.6732 34.7629Z" fill="white"/>
<path d="M78.4659 5.24171L78.4659 5.24172C77.5973 5.62722 77.2057 6.64385 77.5912 7.51242L95.6871 48.2848C96.0726 49.1534 97.0893 49.545 97.9579 49.1595C98.8264 48.774 99.2181 47.7574 98.8326 46.8888L80.7366 6.1164C80.3511 5.24783 79.3345 4.85622 78.4659 5.24171Z" fill="white"/>
<path d="M37.5035 5.52082L37.5035 5.52082C36.6106 5.84584 36.1501 6.83321 36.4752 7.72618L52.902 52.8586C53.227 53.7516 54.2144 54.212 55.1074 53.887C56.0004 53.562 56.4608 52.5746 56.1358 51.6816L39.7089 6.5492C39.3839 5.65622 38.3965 5.1958 37.5035 5.52082Z" fill="white"/>
<path d="M53.3497 53.8775L53.3497 53.8775C54.1166 54.4387 55.1932 54.2719 55.7544 53.505L83.3904 15.7398C83.9515 14.9729 83.7848 13.8963 83.0179 13.3351C82.251 12.7739 81.1744 12.9406 80.6132 13.7075L52.9773 51.4728C52.4161 52.2397 52.5828 53.3163 53.3497 53.8775Z" fill="white"/>
<path d="M52.2939 48.2833L52.294 48.2833C53.4429 49.2441 55.1532 49.0915 56.1139 47.9425L72.465 28.3883C73.4257 27.2393 73.2731 25.5291 72.1242 24.5683C70.9752 23.6076 69.2649 23.7601 68.3042 24.9091L51.9532 44.4633C50.9924 45.6123 51.145 47.3225 52.2939 48.2833Z" fill="white"/>
<path d="M44.5303 27.8586L44.5303 27.8586C44.9304 28.7206 45.9535 29.095 46.8154 28.6949L80.1159 13.2388C80.9779 12.8387 81.3523 11.8156 80.9522 10.9537C80.5521 10.0917 79.5291 9.71728 78.6671 10.1174L45.3666 25.5735C44.5047 25.9736 44.1302 26.9967 44.5303 27.8586Z" fill="white"/>
<path d="M39.5507 34.6876L39.5507 34.6876C40.2892 35.2857 41.3726 35.1718 41.9707 34.4333L46.6397 28.668C47.2378 27.9295 47.1239 26.846 46.3854 26.248L46.3854 26.248C45.6469 25.6499 44.5635 25.7638 43.9654 26.5022L39.2964 32.2676C38.6983 33.0061 38.8122 34.0895 39.5507 34.6876Z" fill="white"/>
<path d="M44.0971 50.9126C43.1641 50.9126 42.4078 51.669 42.4078 52.6019C42.4078 53.5349 43.1641 54.2913 44.0971 54.2913H54.1165C55.0495 54.2913 55.8058 53.5349 55.8058 52.6019C55.8058 51.669 55.0495 50.9126 54.1165 50.9126H44.0971Z" fill="white"/>
<path d="M70.1941 23.767C69.2612 23.767 68.5048 24.5233 68.5048 25.4563C68.5048 26.3893 69.2612 27.1456 70.1941 27.1456H73.4563C74.3893 27.1456 75.1456 26.3893 75.1456 25.4563C75.1456 24.5233 74.3893 23.767 73.4563 23.767H70.1941Z" fill="white"/>
<path d="M78.4255 5.15067C77.5792 5.54349 77.2116 6.54797 77.6045 7.39423C77.9973 8.24049 79.0018 8.60807 79.848 8.21525L82.3842 7.03798C83.2305 6.64516 83.5981 5.64069 83.2052 4.79443C82.8124 3.94817 81.808 3.58059 80.9617 3.97341L78.4255 5.15067Z" fill="white"/>
<path d="M80.0633 5.95704C80.4561 6.8033 81.4606 7.17089 82.3068 6.77807C83.1531 6.38525 83.5207 5.38077 83.1278 4.53451L81.9506 1.99831C81.5578 1.15205 80.5533 0.78447 79.707 1.17729C78.8608 1.57011 78.4932 2.57458 78.886 3.42084L80.0633 5.95704Z" fill="white"/>
<path d="M79.6578 4.20385C80.5721 4.38956 81.4639 3.7989 81.6496 2.88458C81.8353 1.97027 81.2446 1.07852 80.3303 0.892818L77.5902 0.33627C76.6758 0.150566 75.7841 0.741224 75.5984 1.65554C75.4127 2.56986 76.0033 3.4616 76.9177 3.64731L79.6578 4.20385Z" fill="white"/>
<path d="M46.7767 5.35922H29.6505C28.9105 5.35922 28.3107 5.95907 28.3107 6.69903C28.3107 7.43898 28.9105 8.03883 29.6505 8.03883H46.7767C47.5166 8.03883 48.1165 7.43898 48.1165 6.69903C48.1165 5.95907 47.5166 5.35922 46.7767 5.35922Z" fill="white"/>
<path fill-rule="evenodd" clip-rule="evenodd" d="M28.6344 5.35922C28.4255 5.75918 28.3107 6.19576 28.3107 6.65292C28.3107 8.57653 30.345 10.1359 32.8544 10.1359C35.3638 10.1359 37.398 8.57653 37.398 6.65292C37.398 6.19576 37.2832 5.75918 37.0743 5.35922H28.6344Z" fill="white"/>
<path d="M29.1262 5.35922H28.3107V6.75728H29.1262V5.35922Z" fill="white"/>
</g>
</mask>
<g mask="url(#mask0_53_760)">
<rect x="-17.2993" y="-11.6505" width="152.868" height="91.7917" fill="url(#paint0_linear_53_760)"/>
</g>
<defs>
<linearGradient id="paint0_linear_53_760" x1="-4.23655" y1="40.2471" x2="335" y2="34" gradientUnits="userSpaceOnUse">
<stop stop-color="#00FFB2"/>
<stop offset="1" stop-color="#00A1FF"/>
</linearGradient>
<clipPath id="clip0_53_760">
<rect width="120" height="69.9029" fill="white"/>
</clipPath>
</defs>
</svg>
