<svg width="59" height="80" viewBox="0 0 59 80" fill="none" xmlns="http://www.w3.org/2000/svg">
<path d="M29.0909 18.1818V29.0909L43.6364 14.5455L29.0909 0V10.9091C21.3755 10.9091 13.9761 13.974 8.52053 19.4296C3.06493 24.8852 0 32.2846 0 40C0 45.7091 1.67273 51.0182 4.50909 55.4909L9.81818 50.1818C8.18182 47.1636 7.27273 43.6364 7.27273 40C7.27273 34.2135 9.57142 28.6639 13.6631 24.5722C17.7548 20.4805 23.3044 18.1818 29.0909 18.1818ZM53.6727 24.5091L48.3636 29.8182C49.9636 32.8727 50.9091 36.3636 50.9091 40C50.9091 45.7865 48.6104 51.3361 44.5187 55.4278C40.427 59.5195 34.8775 61.8182 29.0909 61.8182V50.9091L14.5455 65.4545L29.0909 80V69.0909C36.8063 69.0909 44.2057 66.026 49.6613 60.5704C55.1169 55.1148 58.1818 47.7154 58.1818 40C58.1818 34.2909 56.5091 28.9818 53.6727 24.5091Z" fill="#FFB300"/>
</svg>
