<svg width="41" height="40" viewBox="0 0 41 40" fill="none" xmlns="http://www.w3.org/2000/svg">
<path d="M38.648 9.4L38.672 9.37778L29.744 1.11111L27.2 3.46667L32.264 8.15556C30.008 8.95556 28.4 10.9556 28.4 13.3333C28.4 14.0629 28.5552 14.7853 28.8567 15.4594C29.1582 16.1334 29.6002 16.7458 30.1573 17.2617C31.2826 18.3036 32.8087 18.8889 34.4 18.8889C35.264 18.8889 36.056 18.7111 36.8 18.4222V34.4444C36.8 35.0338 36.5471 35.599 36.097 36.0158C35.647 36.4325 35.0365 36.6667 34.4 36.6667C33.7635 36.6667 33.153 36.4325 32.7029 36.0158C32.2528 35.599 32 35.0338 32 34.4444V24.4444C32 23.2657 31.4943 22.1352 30.5941 21.3018C29.6939 20.4683 28.473 20 27.2 20H24.8V4.44444C24.8 3.2657 24.2943 2.13524 23.3941 1.30175C22.4939 0.468252 21.273 0 20 0H5.59999C4.32695 0 3.10605 0.468252 2.20587 1.30175C1.3057 2.13524 0.799988 3.2657 0.799988 4.44444V40H24.8V23.3333H28.4V34.4444C28.4 35.9179 29.0321 37.3309 30.1573 38.3728C31.2826 39.4147 32.8087 40 34.4 40C35.1879 40 35.9681 39.8563 36.6961 39.5771C37.424 39.2979 38.0855 38.8887 38.6426 38.3728C39.1998 37.8569 39.6417 37.2445 39.9433 36.5705C40.2448 35.8964 40.4 35.174 40.4 34.4444V13.3333C40.4 11.8 39.728 10.4 38.648 9.4ZM34.4 15.5556C33.7635 15.5556 33.153 15.3214 32.7029 14.9047C32.2528 14.4879 32 13.9227 32 13.3333C32 12.744 32.2528 12.1787 32.7029 11.762C33.153 11.3452 33.7635 11.1111 34.4 11.1111C35.0365 11.1111 35.647 11.3452 36.097 11.762C36.5471 12.1787 36.8 12.744 36.8 13.3333C36.8 13.9227 36.5471 14.4879 36.097 14.9047C35.647 15.3214 35.0365 15.5556 34.4 15.5556ZM10.4 33.3333V23.3333H5.59999L15.2 6.66667V17.7778H20L10.4 33.3333Z" fill="#08343E"/>
</svg>
