<svg width="23" height="40" viewBox="0 0 23 40" fill="none" xmlns="http://www.w3.org/2000/svg">
<path d="M0.799988 26.6667H5.19999C5.19999 29.0667 8.21399 31.1111 11.8 31.1111C15.386 31.1111 18.4 29.0667 18.4 26.6667C18.4 24.2222 16.112 23.3333 11.272 22.1556C6.60799 20.9778 0.799988 19.5111 0.799988 13.3333C0.799988 9.35556 4.03399 5.97778 8.49999 4.84444V0H15.1V4.84444C19.566 5.97778 22.8 9.35556 22.8 13.3333H18.4C18.4 10.9333 15.386 8.88889 11.8 8.88889C8.21399 8.88889 5.19999 10.9333 5.19999 13.3333C5.19999 15.7778 7.48799 16.6667 12.328 17.8444C16.992 19.0222 22.8 20.4889 22.8 26.6667C22.8 30.6444 19.566 34.0222 15.1 35.1556V40H8.49999V35.1556C4.03399 34.0222 0.799988 30.6444 0.799988 26.6667Z" fill="#08343E"/>
</svg>
