<svg width="83" height="72" viewBox="0 0 83 72" fill="none" xmlns="http://www.w3.org/2000/svg">
<path d="M39.6 22.752C41.652 24.12 43.2 26.46 43.2 28.8V48.6L30.6 61.2V72H12.6V61.2L0 48.6V28.8C0 25.2 3.6 21.6 7.2 21.6V7.2H14.4V21.6H28.8V7.2H36V21.6C37.26 21.6 38.52 22.032 39.6 22.752ZM25.524 56.124L36 45.612V29.124C36 29.016 35.82 28.8 35.712 28.8H7.524C7.416 28.8 7.2 29.016 7.2 29.124V45.612L19.188 57.6H24.012L25.524 56.124ZM43.2 7.344C43.596 7.2 43.992 7.2 44.388 7.2H50.4V0H72V7.2H78.012C80.64 7.2 82.8 9.36 82.8 11.988V67.212C82.8 68.4 82.296 69.696 81.396 70.596C80.496 71.496 79.2 72 78.012 72H44.388C41.76 72 39.6 69.84 39.6 67.212V62.388L46.8 55.188V64.8H75.6V14.4H43.2V7.344Z" fill="#FFB300"/>
</svg>
