<svg width="81" height="72" viewBox="0 0 81 72" fill="none" xmlns="http://www.w3.org/2000/svg">
<path d="M32.7628 15.12C32.7628 8.28 28.3945 2.16 21.8419 0V13.32H10.9209V0C4.36838 2.16 0 8.28 0 15.12C0 21.96 4.36838 28.08 10.9209 30.24V69.84C10.9209 71.28 11.649 72 12.7411 72H20.0217C21.1138 72 21.8419 71.28 21.8419 70.2V30.6C28.3945 28.44 32.7628 22.32 32.7628 15.12ZM54.6047 21.6C40.4075 21.96 29.1225 33.12 29.1225 46.8C29.1225 60.84 40.4075 72 54.6047 72C68.802 72 80.087 60.84 80.087 46.8C80.087 32.76 68.802 21.6 54.6047 21.6ZM54.6047 64.8C44.4119 64.8 36.4032 56.88 36.4032 46.8C36.4032 36.72 44.4119 28.8 54.6047 28.8C64.7976 28.8 72.8063 36.72 72.8063 46.8C72.8063 56.88 64.7976 64.8 54.6047 64.8ZM50.9644 32.4V50.4L64.0696 58.32L66.9818 54L56.4249 47.88V32.4H50.9644Z" fill="#FFB300"/>
</svg>
